<svg width="81" height="32" viewBox="0 0 81 32" fill="none" xmlns="http://www.w3.org/2000/svg">
<path d="M64.5547 0L73.612 14.6286V0H64.5547Z" fill="white"/>
<path d="M68.0547 14.6289L58.9973 0.000335693V14.6289H68.0547Z" fill="white"/>
<path d="M47.4922 32.0001V15.543H58.4207V18.4117H50.9212V22.3331H57.8584V25.2019H50.9212V29.1314H58.4523V32.0001H47.4922Z" fill="white"/>
<path d="M44.7556 15.543V32.0001H41.9638L35.3129 21.6421H35.2009V32.0001H31.9688V15.543H34.8053L41.404 25.893H41.5384V15.543H44.7556Z" fill="white"/>
<path d="M15.5234 15.543H19.2072L22.7543 22.6305H22.9062L26.4532 15.543H30.137L24.4632 26.1823V32.0001H21.1972V26.1823L15.5234 15.543Z" fill="white"/>
<path d="M14.6135 21.3702H11.1405C11.0771 20.927 10.9476 20.5333 10.752 20.1891C10.5564 19.8398 10.3053 19.5425 9.99873 19.2975C9.69214 19.0524 9.33797 18.8646 8.93622 18.7343C8.53976 18.6039 8.10894 18.5387 7.64376 18.5387C6.80326 18.5387 6.07113 18.7447 5.44737 19.1567C4.8236 19.5634 4.33992 20.1579 3.99632 20.94C3.65272 21.717 3.48092 22.6608 3.48092 23.7715C3.48092 24.9135 3.65272 25.873 3.99632 26.65C4.34521 27.4269 4.83153 28.0136 5.4553 28.4099C6.07906 28.8062 6.80062 29.0043 7.61997 29.0043C8.07987 29.0043 8.5054 28.9444 8.89657 28.8244C9.29304 28.7045 9.64456 28.5298 9.95116 28.3004C10.2578 28.0657 10.5115 27.7815 10.7124 27.4478C10.9185 27.1141 11.0612 26.7334 11.1405 26.3058L14.6135 26.3215C14.5237 27.0567 14.299 27.7659 13.9396 28.449C13.5854 29.1269 13.107 29.7344 12.5044 30.2715C11.907 30.8034 11.1934 31.2257 10.3635 31.5386C9.53884 31.8463 8.60584 32.0001 7.56447 32.0001C6.11607 32.0001 4.82096 31.6768 3.67915 31.0302C2.54263 30.3836 1.64399 29.4476 0.983222 28.2222C0.327741 26.9967 0 25.5132 0 23.7715C0 22.0247 0.333027 20.5385 0.999081 19.3131C1.66513 18.0877 2.56906 17.1543 3.71087 16.5129C4.85268 15.8663 6.13721 15.543 7.56447 15.543C8.5054 15.543 9.37761 15.6733 10.1811 15.9341C10.9899 16.1948 11.7062 16.5755 12.3299 17.076C12.9537 17.5714 13.4612 18.1789 13.8523 18.8985C14.2488 19.6181 14.5025 20.442 14.6135 21.3702Z" fill="white"/>
</svg>
