<svg width="95" height="32" viewBox="0 0 95 32" fill="none" xmlns="http://www.w3.org/2000/svg">
<path d="M85.9453 0L95.0027 14.6286V0H85.9453Z" fill="white"/>
<path d="M89.4453 14.6287L80.388 9.15527e-05V14.6287H89.4453Z" fill="white"/>
<path d="M66.6738 18.4116V15.5428H79.4607V18.4116H74.6941V32H71.4404V18.4116H66.6738Z" fill="white"/>
<path d="M64.8487 15.5428V32H61.1953V15.5428H64.8487Z" fill="white"/>
<path d="M47.4941 32V15.5428H58.4226V18.4116H50.9231V22.333H57.8604V25.2018H50.9231V29.1312H58.4543V32H47.4941Z" fill="white"/>
<path d="M44.7536 15.5428V32H41.9619L35.3109 21.642H35.199V32H31.9668V15.5428H34.8033L41.402 25.8928H41.5364V15.5428H44.7536Z" fill="white"/>
<path d="M15.5272 15.5428H19.211L22.758 22.6303H22.9099L26.457 15.5428H30.1408L24.467 26.1821V32H21.201V26.1821L15.5272 15.5428Z" fill="white"/>
<path d="M14.6135 21.3701H11.1405C11.0771 20.9269 10.9476 20.5332 10.752 20.189C10.5564 19.8396 10.3053 19.5424 9.99873 19.2973C9.69214 19.0522 9.33797 18.8645 8.93622 18.7342C8.53976 18.6038 8.10894 18.5386 7.64376 18.5386C6.80326 18.5386 6.07113 18.7446 5.44737 19.1565C4.8236 19.5633 4.33992 20.1577 3.99632 20.9399C3.65272 21.7169 3.48092 22.6607 3.48092 23.7714C3.48092 24.9134 3.65272 25.8729 3.99632 26.6499C4.34521 27.4268 4.83153 28.0135 5.4553 28.4098C6.07906 28.8061 6.80062 29.0042 7.61997 29.0042C8.07987 29.0042 8.5054 28.9443 8.89657 28.8243C9.29304 28.7044 9.64456 28.5297 9.95116 28.3003C10.2578 28.0656 10.5115 27.7814 10.7124 27.4477C10.9185 27.1139 11.0612 26.7333 11.1405 26.3057L14.6135 26.3213C14.5237 27.0566 14.299 27.7658 13.9396 28.4489C13.5854 29.1268 13.107 29.7343 12.5044 30.2714C11.907 30.8032 11.1934 31.2256 10.3635 31.5385C9.53884 31.8462 8.60584 32 7.56447 32C6.11607 32 4.82096 31.6767 3.67915 31.0301C2.54263 30.3835 1.64399 29.4475 0.983222 28.222C0.327741 26.9966 0 25.5131 0 23.7714C0 22.0245 0.333027 20.5384 0.999081 19.313C1.66513 18.0876 2.56906 17.1541 3.71087 16.5128C4.85268 15.8661 6.13721 15.5428 7.56447 15.5428C8.5054 15.5428 9.37761 15.6732 10.1811 15.9339C10.9899 16.1947 11.7062 16.5753 12.3299 17.0759C12.9537 17.5713 13.4612 18.1788 13.8523 18.8984C14.2488 19.618 14.5025 20.4419 14.6135 21.3701Z" fill="white"/>
</svg>
