<svg width="20" height="20" viewBox="0 0 20 20" fill="none" xmlns="http://www.w3.org/2000/svg">
<path d="M7.1875 12.5C12.5 12.5 12.5 7.1875 12.5 7.1875C12.5 7.1875 12.5 12.5 17.8125 12.5C12.5 12.5 12.5 17.8125 12.5 17.8125C12.5 17.8125 12.5 12.5 7.1875 12.5ZM5 2.1875C5 2.1875 5 5 2.1875 5C5 5 5 7.8125 5 7.8125C5 7.8125 5 5 7.8125 5C5 5 5 2.1875 5 2.1875Z" fill="#FF4EFF"/>
<path d="M7.1875 12.5C12.5 12.5 12.5 7.1875 12.5 7.1875C12.5 7.1875 12.5 12.5 17.8125 12.5C12.5 12.5 12.5 17.8125 12.5 17.8125C12.5 17.8125 12.5 12.5 7.1875 12.5ZM5 2.1875C5 2.1875 5 5 2.1875 5C5 5 5 7.8125 5 7.8125C5 7.8125 5 5 7.8125 5C5 5 5 2.1875 5 2.1875Z" stroke="#FF4EFF" stroke-width="1.875" stroke-linecap="round" stroke-linejoin="round"/>
</svg>
