<svg width="1917" height="224" viewBox="0 0 1917 224" fill="none" xmlns="http://www.w3.org/2000/svg">
<path d="M54.4989 220.505L-3.69531 3.49545H29.5791L61.125 129.769C63.4297 139.09 65.5904 148.459 67.607 157.878C69.6237 167.199 71.5923 176.569 73.5129 185.987C75.4335 176.569 77.4501 167.199 79.5628 157.878C81.6755 148.459 83.9322 139.09 86.3329 129.769L118.887 3.49545H153.89L186.156 129.769C190.766 148.217 195.039 166.713 198.976 185.259C200.897 176.035 202.865 166.811 204.882 157.586C206.995 148.265 209.155 138.993 211.364 129.769L242.91 3.49545H276.328L217.846 220.505H181.259L145.968 87.8231C144.239 81.1235 142.559 74.2783 140.926 67.2874C139.39 60.1994 137.805 52.9658 136.173 45.5865C134.636 52.9658 133.1 60.1994 131.563 67.2874C130.027 74.2783 128.346 81.1235 126.522 87.8231L91.5185 220.505H54.4989Z" fill="#13111B"/>
<path d="M296.223 220.505V3.49545H440.557V31.896H328.201V95.8335H432.202V123.943H328.201V192.104H440.557V220.505H296.223Z" fill="#13111B"/>
<path d="M518.95 220.505L596.879 3.49545H635.483L712.835 220.505H678.12L659.106 164.14H572.535L552.945 220.505H518.95ZM582.186 136.614H649.743L636.779 98.1638C633.898 89.231 630.825 79.6671 627.56 69.472C624.295 59.277 620.55 47.14 616.325 33.0611C612.004 47.14 608.21 59.277 604.945 69.472C601.68 79.6671 598.559 89.231 595.582 98.1638L582.186 136.614Z" fill="#13111B"/>
<path d="M733.018 220.505V3.49545H814.692C837.643 3.49545 855.841 9.56394 869.285 21.7009C882.729 33.8379 889.451 50.2956 889.451 71.0741C889.451 86.2211 885.61 99.1348 877.927 109.815C870.245 120.399 859.73 128.118 846.382 132.973L892.764 220.505H856.753L813.971 138.362C813.491 138.362 813.011 138.362 812.531 138.362H764.996V220.505H733.018ZM764.996 110.835H813.395C827.224 110.835 838.075 107.291 845.949 100.203C853.92 93.0178 857.905 83.3082 857.905 71.0741C857.905 58.84 853.92 49.179 845.949 42.091C837.979 35.003 827.08 31.459 813.251 31.459H764.996V110.835Z" fill="#13111B"/>
<path d="M919.429 220.505V3.49545H1063.76V31.896H951.407V95.8335H1055.41V123.943H951.407V192.104H1063.76V220.505H919.429Z" fill="#13111B"/>
<path d="M1251.63 224C1231.94 224 1214.56 219.291 1199.49 209.873C1184.41 200.454 1172.65 187.346 1164.2 170.549C1155.74 153.751 1151.52 134.283 1151.52 112.146C1151.52 89.8136 1155.74 70.2488 1164.2 53.4512C1172.65 36.6537 1184.36 23.5457 1199.34 14.1274C1214.42 4.70915 1231.85 0 1251.63 0C1267.28 0 1281.45 3.10707 1294.12 9.3212C1306.9 15.5353 1317.46 24.3225 1325.81 35.6827C1334.17 46.9458 1339.59 60.2965 1342.09 75.7347H1309.54C1306.37 60.9762 1299.6 49.616 1289.23 41.6541C1278.95 33.5951 1266.52 29.5657 1251.92 29.5657C1237.8 29.5657 1225.65 33.0126 1215.48 39.9064C1205.3 46.8002 1197.42 56.4612 1191.85 68.8895C1186.38 81.3177 1183.64 95.7365 1183.64 112.146C1183.64 128.555 1186.38 142.925 1191.85 155.256C1197.33 167.587 1205.15 177.2 1215.33 184.094C1225.61 190.987 1237.8 194.434 1251.92 194.434C1266.42 194.434 1278.81 190.453 1289.08 182.492C1299.45 174.53 1306.32 163.218 1309.68 148.557H1342.09C1339.59 163.898 1334.17 177.248 1325.81 188.609C1317.46 199.872 1306.9 208.61 1294.12 214.824C1281.45 220.941 1267.28 224 1251.63 224Z" fill="#13111B"/>
<path d="M1432.86 220.505V133.847L1353.63 3.49545H1390.65L1431.42 71.948C1434.49 76.997 1437.47 82.0459 1440.35 87.0949C1443.23 92.1439 1446.06 97.1929 1448.84 102.242C1451.63 97.1929 1454.46 92.1439 1457.34 87.0949C1460.22 82.0459 1463.15 76.997 1466.13 71.948L1506.46 3.49545H1543.19L1464.55 133.847V220.505H1432.86Z" fill="#13111B"/>
<path d="M1563.09 220.505V3.49545H1598.52L1680.49 134.72C1682.98 138.798 1686.39 144.576 1690.71 152.052C1695.03 159.528 1699.36 167.102 1703.68 174.772C1703.39 166.908 1703.15 158.946 1702.96 150.887C1702.86 142.731 1702.81 136.662 1702.81 132.681V3.49545H1734.94V220.505H1699.21L1625.89 103.261C1622.92 98.5037 1618.59 91.4157 1612.93 81.9974C1607.36 72.482 1601.02 61.5587 1593.92 49.2276C1594.4 61.9471 1594.68 72.9189 1594.78 82.143C1594.97 91.27 1595.07 98.2609 1595.07 103.116V220.505H1563.09Z" fill="#13111B"/>
<path d="M1771.97 220.505V3.49545H1916.3V31.896H1803.95V95.8335H1907.95V123.943H1803.95V192.104H1916.3V220.505H1771.97Z" fill="#13111B"/>
</svg>
